<mxfile host="app.diagrams.net" agent="Mozilla/5.0 (Windows NT 10.0; Win64; x64) AppleWebKit/537.36 (KHTML, like Gecko) Chrome/134.0.0.0 Safari/537.36 OPR/119.0.0.0 (Edition std-2)" version="28.0.4">
  <diagram name="PÃ¡gina-1" id="-oBtZagFQr6BwE859LIM">
    <mxGraphModel dx="2126" dy="1166" grid="1" gridSize="10" guides="1" tooltips="1" connect="1" arrows="1" fold="1" page="1" pageScale="1" pageWidth="827" pageHeight="1169" math="0" shadow="0">
      <root>
        <mxCell id="0" />
        <mxCell id="1" parent="0" />
        <mxCell id="JEXbMqFdo-jNTM7aFnA4-15" value="&lt;div&gt;AWS Cloud Infrastructure&amp;nbsp;&amp;nbsp;&lt;/div&gt;&lt;div&gt;(Deployment Region: us-east-1)&lt;/div&gt;" style="shape=umlFrame;whiteSpace=wrap;html=1;pointerEvents=0;width=200;height=30;" vertex="1" parent="1">
          <mxGeometry x="120" y="200" width="1630" height="840" as="geometry" />
        </mxCell>
        <mxCell id="JEXbMqFdo-jNTM7aFnA4-16" value="Amazon EKS Cluster&lt;br&gt;&lt;div style=&quot;text-align: left; text-wrap-mode: nowrap;&quot;&gt;- Hosts microservices and API gateway&amp;nbsp;&amp;nbsp;&lt;/div&gt;&lt;div style=&quot;text-align: left; text-wrap-mode: nowrap;&quot;&gt;- Autoscaling enabled&amp;nbsp;&amp;nbsp;&lt;/div&gt;&lt;div style=&quot;text-align: left; text-wrap-mode: nowrap;&quot;&gt;- Multi-AZ availability&lt;/div&gt;" style="shape=umlFrame;whiteSpace=wrap;html=1;pointerEvents=0;width=270;height=70;" vertex="1" parent="1">
          <mxGeometry x="150" y="260" width="1560" height="680" as="geometry" />
        </mxCell>
        <mxCell id="JEXbMqFdo-jNTM7aFnA4-18" value="" style="endArrow=none;html=1;rounded=0;entryX=0.508;entryY=1;entryDx=0;entryDy=0;entryPerimeter=0;exitX=0.511;exitY=-0.002;exitDx=0;exitDy=0;exitPerimeter=0;" edge="1" parent="1" target="JEXbMqFdo-jNTM7aFnA4-16">
          <mxGeometry width="50" height="50" relative="1" as="geometry">
            <mxPoint x="940.0000000000002" y="260.00000000000006" as="sourcePoint" />
            <mxPoint x="944.5200000000002" y="732.3500000000001" as="targetPoint" />
          </mxGeometry>
        </mxCell>
        <mxCell id="JEXbMqFdo-jNTM7aFnA4-19" value="Frontend Layer" style="text;html=1;align=center;verticalAlign=middle;resizable=0;points=[];autosize=1;strokeColor=none;fillColor=none;" vertex="1" parent="1">
          <mxGeometry x="500" y="280" width="100" height="30" as="geometry" />
        </mxCell>
        <mxCell id="JEXbMqFdo-jNTM7aFnA4-20" value="Backend Microservices Layer" style="text;html=1;align=center;verticalAlign=middle;resizable=0;points=[];autosize=1;strokeColor=none;fillColor=none;" vertex="1" parent="1">
          <mxGeometry x="1440" y="280" width="180" height="30" as="geometry" />
        </mxCell>
        <mxCell id="JEXbMqFdo-jNTM7aFnA4-23" value="&#xa;HTTPS (internal)&#xa;&#xa;" style="edgeStyle=orthogonalEdgeStyle;rounded=0;orthogonalLoop=1;jettySize=auto;html=1;entryX=0;entryY=0.5;entryDx=0;entryDy=0;" edge="1" parent="1" source="JEXbMqFdo-jNTM7aFnA4-21" target="JEXbMqFdo-jNTM7aFnA4-22">
          <mxGeometry relative="1" as="geometry">
            <mxPoint as="offset" />
          </mxGeometry>
        </mxCell>
        <mxCell id="JEXbMqFdo-jNTM7aFnA4-21" value="&lt;div&gt;UI Web Application&amp;nbsp;&amp;nbsp;&lt;/div&gt;&lt;div&gt;Technology: ASP.NET&amp;nbsp;&amp;nbsp;&lt;/div&gt;&lt;div&gt;Frontend for users and admins&amp;nbsp;&amp;nbsp;&lt;/div&gt;&lt;div&gt;Runs inside Kubernetes Pod&lt;/div&gt;" style="html=1;whiteSpace=wrap;" vertex="1" parent="1">
          <mxGeometry x="160" y="400" width="210" height="100" as="geometry" />
        </mxCell>
        <mxCell id="JEXbMqFdo-jNTM7aFnA4-22" value="&lt;div&gt;Kong API Gateway&amp;nbsp;&amp;nbsp;&lt;/div&gt;&lt;div&gt;Routes requests to microservices&amp;nbsp;&amp;nbsp;&lt;/div&gt;&lt;div&gt;Applies authentication and logging&amp;nbsp;&amp;nbsp;&lt;/div&gt;&lt;div&gt;Exposed via cluster service&lt;/div&gt;" style="whiteSpace=wrap;html=1;" vertex="1" parent="1">
          <mxGeometry x="510" y="400" width="200" height="100" as="geometry" />
        </mxCell>
        <mxCell id="JEXbMqFdo-jNTM7aFnA4-25" value="&lt;div&gt;Shopping Cart Management Service&amp;nbsp;&amp;nbsp;&lt;/div&gt;&lt;div&gt;.NET Core API&amp;nbsp;&amp;nbsp;&lt;/div&gt;&lt;div&gt;Handles cart operations&amp;nbsp;&amp;nbsp;&lt;/div&gt;&lt;div&gt;Pod in Kubernetes&lt;/div&gt;" style="whiteSpace=wrap;html=1;" vertex="1" parent="1">
          <mxGeometry x="1080" y="320" width="200" height="100" as="geometry" />
        </mxCell>
        <mxCell id="JEXbMqFdo-jNTM7aFnA4-26" value="&lt;div&gt;Payment Management Service&amp;nbsp;&amp;nbsp;&lt;/div&gt;&lt;div&gt;.NET Core API&amp;nbsp;&amp;nbsp;&lt;/div&gt;&lt;div&gt;Processes payments&amp;nbsp;&amp;nbsp;&lt;/div&gt;&lt;div&gt;Publishes events to RabbitMQ&lt;/div&gt;" style="whiteSpace=wrap;html=1;" vertex="1" parent="1">
          <mxGeometry x="1490" y="340" width="180" height="100" as="geometry" />
        </mxCell>
        <mxCell id="JEXbMqFdo-jNTM7aFnA4-27" value="&lt;div&gt;Shopping Cart Management Service&amp;nbsp;&amp;nbsp;&lt;/div&gt;&lt;div&gt;.NET Core API&amp;nbsp;&amp;nbsp;&lt;/div&gt;&lt;div&gt;Handles cart operations&amp;nbsp;&amp;nbsp;&lt;/div&gt;&lt;div&gt;Pod in Kubernetes&lt;/div&gt;" style="whiteSpace=wrap;html=1;" vertex="1" parent="1">
          <mxGeometry x="1070" y="500" width="200" height="100" as="geometry" />
        </mxCell>
        <mxCell id="JEXbMqFdo-jNTM7aFnA4-28" value="&lt;div&gt;Shopping Cart Management Service&amp;nbsp;&amp;nbsp;&lt;/div&gt;&lt;div&gt;.NET Core API&amp;nbsp;&amp;nbsp;&lt;/div&gt;&lt;div&gt;Handles cart operations&amp;nbsp;&amp;nbsp;&lt;/div&gt;&lt;div&gt;Pod in Kubernetes&lt;/div&gt;" style="whiteSpace=wrap;html=1;" vertex="1" parent="1">
          <mxGeometry x="1454" y="760" width="200" height="100" as="geometry" />
        </mxCell>
        <mxCell id="JEXbMqFdo-jNTM7aFnA4-29" value="&lt;div&gt;Shopping Cart Management Service&amp;nbsp;&amp;nbsp;&lt;/div&gt;&lt;div&gt;.NET Core API&amp;nbsp;&amp;nbsp;&lt;/div&gt;&lt;div&gt;Handles cart operations&amp;nbsp;&amp;nbsp;&lt;/div&gt;&lt;div&gt;Pod in Kubernetes&lt;/div&gt;" style="whiteSpace=wrap;html=1;" vertex="1" parent="1">
          <mxGeometry x="1454" y="560" width="200" height="100" as="geometry" />
        </mxCell>
        <mxCell id="JEXbMqFdo-jNTM7aFnA4-30" value="&lt;div&gt;Shopping Cart Management Service&amp;nbsp;&amp;nbsp;&lt;/div&gt;&lt;div&gt;.NET Core API&amp;nbsp;&amp;nbsp;&lt;/div&gt;&lt;div&gt;Handles cart operations&amp;nbsp;&amp;nbsp;&lt;/div&gt;&lt;div&gt;Pod in Kubernetes&lt;/div&gt;" style="whiteSpace=wrap;html=1;" vertex="1" parent="1">
          <mxGeometry x="1090" y="650" width="200" height="100" as="geometry" />
        </mxCell>
        <mxCell id="JEXbMqFdo-jNTM7aFnA4-31" value="&lt;div&gt;Shopping Cart Management Service&amp;nbsp;&amp;nbsp;&lt;/div&gt;&lt;div&gt;.NET Core API&amp;nbsp;&amp;nbsp;&lt;/div&gt;&lt;div&gt;Handles cart operations&amp;nbsp;&amp;nbsp;&lt;/div&gt;&lt;div&gt;Pod in Kubernetes&lt;/div&gt;" style="whiteSpace=wrap;html=1;" vertex="1" parent="1">
          <mxGeometry x="1160" y="820" width="200" height="100" as="geometry" />
        </mxCell>
      </root>
    </mxGraphModel>
  </diagram>
</mxfile>
